<?xml version="1.0" standalone="no"?>
<!DOCTYPE svg PUBLIC "-//W3C//DTD SVG 20010904//EN"
 "http://www.w3.org/TR/2001/REC-SVG-20010904/DTD/svg10.dtd">
<svg version="1.0" xmlns="http://www.w3.org/2000/svg"
 width="512.000000pt" height="512.000000pt" viewBox="0 0 512.000000 512.000000"
 preserveAspectRatio="xMidYMid meet">

<g transform="translate(0.000000,512.000000) scale(0.100000,-0.100000)"
fill="#282756" stroke="none">
<path d="M2338 5110 c-482 -44 -933 -218 -1326 -512 -124 -93 -341 -304 -445
-433 -735 -912 -755 -2203 -48 -3145 405 -541 1012 -895 1706 -996 179 -27
515 -24 700 4 568 88 1081 350 1470 753 625 646 864 1551 640 2424 -89 345
-258 683 -482 960 -104 129 -321 340 -445 433 -283 212 -629 376 -953 452
-235 55 -585 81 -817 60z m542 -326 c395 -58 791 -230 1091 -475 444 -362 731
-867 813 -1430 19 -125 21 -451 5 -597 -44 -400 -234 -837 -507 -1163 -340
-406 -819 -681 -1347 -774 -122 -22 -530 -32 -650 -16 -1011 133 -1793 901
-1950 1916 -14 91 -17 155 -12 370 5 230 8 274 32 384 142 670 544 1211 1145
1543 165 91 417 181 627 224 214 43 526 50 753 18z"/>
<path d="M2873 3830 c-146 -30 -248 -157 -248 -306 1 -172 134 -276 314 -246
105 18 206 102 239 201 20 57 15 168 -9 218 -49 100 -176 158 -296 133z"/>
<path d="M2600 3106 c-212 -45 -426 -188 -595 -399 -72 -90 -91 -141 -60 -163
28 -21 61 3 167 124 153 172 241 229 287 183 12 -12 21 -29 21 -39 0 -18 -87
-253 -195 -527 -208 -528 -265 -733 -235 -846 28 -105 103 -153 235 -152 189
3 430 129 641 338 149 147 213 258 171 294 -22 18 -38 7 -147 -104 -202 -207
-248 -238 -291 -199 -38 34 -27 76 131 504 230 627 256 720 231 827 -33 134
-176 197 -361 159z"/>
</g>
</svg>
